<svg xmlns="http://www.w3.org/2000/svg" viewBox="0 0 1920 1080">
  <!-- Gradiente para el cielo -->
  <defs>
    <!-- Gradiente nocturno -->
    <linearGradient id="skyNight" x1="0" y1="0" x2="0" y2="1">
      <stop offset="0%" style="stop-color:#1a237e"/>
      <stop offset="100%" style="stop-color:#311b92"/>
    </linearGradient>
    <!-- Gradiente diurno -->
    <linearGradient id="skyDay" x1="0" y1="0" x2="0" y2="1">
      <stop offset="0%" style="stop-color:#ff9800"/>
      <stop offset="100%" style="stop-color:#ff5722"/>
    </linearGradient>
    <!-- Estrellas patrón -->
    <pattern id="stars" x="0" y="0" width="100" height="100" patternUnits="userSpaceOnUse">
      <circle cx="50" cy="50" r="1" fill="white" opacity="0.8"/>
      <circle cx="20" cy="30" r="1" fill="white" opacity="0.6"/>
      <circle cx="80" cy="70" r="1" fill="white" opacity="0.7"/>
      <circle cx="10" cy="90" r="1" fill="white" opacity="0.5"/>
      <circle cx="90" cy="10" r="1" fill="white" opacity="0.9"/>
    </pattern>
  </defs>

  <!-- Fondo base -->
  <rect width="100%" height="100%" fill="url(#skyNight)" class="dark:fill-[url(#skyNight)]"/>

  <!-- Estrellas (solo visibles en modo oscuro) -->
  <rect width="100%" height="100%" fill="url(#stars)" class="dark:opacity-100 opacity-0"/>

  <!-- Luna/Sol -->
  <circle cx="1700" cy="200" r="80" fill="white" class="dark:fill-white fill-yellow-500"/>

  <!-- Silueta de la ciudad -->
  <path d="M0,500 
           L200,550 L300,450 L400,600 L600,400 L800,550 
           L1000,350 L1200,600 L1400,450 L1600,550 L1800,400 L1920,500
           L1920,1080 L0,1080 Z" 
        fill="#000000" opacity="0.8"/>

  <!-- Ventanas iluminadas (modo nocturno) -->
  <g class="dark:opacity-100 opacity-0">
    <rect x="250" y="480" width="10" height="10" fill="yellow" opacity="0.8"/>
    <rect x="450" y="520" width="10" height="10" fill="yellow" opacity="0.6"/>
    <rect x="650" y="490" width="10" height="10" fill="yellow" opacity="0.7"/>
    <rect x="850" y="510" width="10" height="10" fill="yellow" opacity="0.9"/>
    <!-- Más ventanas... -->
  </g>

  <!-- Palmeras -->
  <g fill="#000000" opacity="0.9">
    <path d="M100,600 C50,500 150,500 100,600" />
    <path d="M500,550 C450,450 550,450 500,550" />
    <path d="M900,580 C850,480 950,480 900,580" />
    <path d="M1300,570 C1250,470 1350,470 1300,570" />
    <path d="M1700,590 C1650,490 1750,490 1700,590" />
  </g>

  <!-- Elementos decorativos City Pop -->
  <g class="dark:opacity-100 opacity-50">
    <path d="M200,200 L220,220" stroke="#ff00ff" stroke-width="2"/>
    <path d="M1700,300 L1720,320" stroke="#00ffff" stroke-width="2"/>
    <circle cx="300" cy="250" r="5" fill="#ff00ff"/>
    <circle cx="1600" cy="350" r="5" fill="#00ffff"/>
  </g>
</svg>